Coordinates
version=1
nRows=17
nColumns=38
inDegrees=no

Units are S.I. units (second, meters, Newtons, ...)
If the header above contains a line with 'inDegrees', this indicates whether rotational values are in degrees (yes) or radians (no).

endheader
time	pelvis_tilt	pelvis_list	pelvis_rotation	pelvis_tx	pelvis_ty	pelvis_tz	hip_flexion_r	hip_adduction_r	hip_rotation_r	knee_angle_r	ankle_angle_r	subtalar_angle_r	mtp_angle_r	hip_flexion_l	hip_adduction_l	hip_rotation_l	knee_angle_l	ankle_angle_l	subtalar_angle_l	mtp_angle_l	lumbar_extension	lumbar_bending	lumbar_rotation	arm_flex_r	arm_add_r	arm_rot_r	elbow_flex_r	pro_sup_r	wrist_flex_r	wrist_dev_r	arm_flex_l	arm_add_l	arm_rot_l	elbow_flex_l	pro_sup_l	wrist_flex_l	wrist_dev_l
20	2.84501	1.40154	-1.14514	0.634655	-0.240742	0.947723	-0.163015	0.00692262	-0.0368589	0.31367	-0.188535	0	0	-0.139594	-0.0883721	-0.082974	0.383484	-0.122675	0	0	-0.273898	0.0368972	0.202053	0.283785	-0.580859	0.0214039	1.61386	1.5708	0	0	0.464648	-0.115324	0.165632	1.26312	1.5708	0	0
20.01	2.84128	1.40294	-1.13998	0.635007	-0.240697	0.947755	-0.162292	0.00778761	-0.0369984	0.311676	-0.190094	0	0	-0.138706	-0.0889981	-0.082201	0.380978	-0.124341	0	0	-0.271768	0.0406539	0.197303	0.292432	-0.586004	0.0380044	1.61139	1.5708	0	0	0.444306	-0.102482	0.121656	1.2703	1.5708	0	0
20.02	2.8402	1.40342	-1.13749	0.635368	-0.240576	0.947699	-0.161925	0.00849693	-0.0386676	0.311819	-0.190034	0	0	-0.138666	-0.0898163	-0.0821242	0.380033	-0.124435	0	0	-0.270142	0.0410831	0.198577	0.292011	-0.58707	0.038582	1.61032	1.5708	0	0	0.436472	-0.1126	0.120963	1.27495	1.5708	0	0
20.03	2.83603	1.40405	-1.13268	0.635776	-0.240325	0.947559	-0.160724	0.00948182	-0.040264	0.313004	-0.189649	0	0	-0.138331	-0.0911842	-0.083501	0.379679	-0.124134	0	0	-0.267784	0.0419955	0.200949	0.290427	-0.587979	0.038053	1.61017	1.5708	0	0	0.428246	-0.124466	0.121722	1.27999	1.5708	0	0
20.04	2.83091	1.40483	-1.12713	0.636187	-0.240057	0.947373	-0.158691	0.0104448	-0.0420205	0.315567	-0.18882	0	0	-0.137415	-0.0926696	-0.0849759	0.380238	-0.123348	0	0	-0.265231	0.04318	0.203903	0.288045	-0.588705	0.0366822	1.61096	1.5708	0	0	0.419925	-0.137214	0.123209	1.28516	1.5708	0	0
20.05	2.82535	1.40538	-1.12146	0.636529	-0.23987	0.947154	-0.155996	0.0113412	-0.0434295	0.31987	-0.18737	0	0	-0.136213	-0.0941915	-0.0865274	0.38177	-0.122106	0	0	-0.263111	0.0448587	0.207629	0.285195	-0.589605	0.0344784	1.61264	1.5708	0	0	0.411734	-0.150391	0.125172	1.28995	1.5708	0	0
20.06	2.8184	1.40595	-1.11428	0.63683	-0.239669	0.946863	-0.152831	0.01233	-0.0449735	0.324948	-0.185338	0	0	-0.134513	-0.0959765	-0.0878989	0.384218	-0.120456	0	0	-0.260798	0.0469094	0.211799	0.281389	-0.591008	0.0312424	1.61495	1.5708	0	0	0.40332	-0.163698	0.126973	1.29431	1.5708	0	0
20.07	2.81777	1.40934	-1.11381	0.637177	-0.239782	0.946999	-0.146363	0.0109057	-0.0437359	0.331117	-0.183503	0	0	-0.131287	-0.0941785	-0.0850444	0.38276	-0.120902	0	0	-0.257273	0.0471077	0.214287	0.279979	-0.591115	0.0306509	1.61528	1.5708	0	0	0.39352	-0.178516	0.126613	1.29801	1.5708	0	0
20.08	2.8161	1.4127	-1.11208	0.637533	-0.239848	0.947107	-0.140229	0.00993641	-0.0421123	0.336868	-0.182168	0	0	-0.128379	-0.0924496	-0.0812886	0.380261	-0.122472	0	0	-0.253487	0.0476368	0.216232	0.278763	-0.590841	0.0302476	1.61545	1.5708	0	0	0.382728	-0.193549	0.124342	1.30185	1.5708	0	0
20.09	2.8145	1.4155	-1.11003	0.637813	-0.23991	0.947212	-0.135143	0.00919965	-0.040693	0.34196	-0.180969	0	0	-0.126068	-0.0909445	-0.0772434	0.377563	-0.124412	0	0	-0.250289	0.0487303	0.21773	0.277609	-0.590559	0.0295717	1.61594	1.5708	0	0	0.371784	-0.208547	0.120962	1.30511	1.5708	0	0
20.1	2.81354	1.4178	-1.10832	0.638055	-0.239922	0.947315	-0.13138	0.00871204	-0.03951	0.34551	-0.179819	0	0	-0.124279	-0.0897402	-0.0736902	0.375088	-0.126332	0	0	-0.247605	0.0501169	0.219014	0.276172	-0.590416	0.0285235	1.6169	1.5708	0	0	0.360983	-0.223469	0.116586	1.30765	1.5708	0	0
20.11	2.81305	1.41984	-1.10673	0.638263	-0.23992	0.947422	-0.128557	0.0084321	-0.0383998	0.347556	-0.178746	0	0	-0.122604	-0.0886473	-0.0701123	0.372951	-0.128284	0	0	-0.245166	0.0517606	0.219997	0.274494	-0.590248	0.0270788	1.61813	1.5708	0	0	0.350616	-0.238619	0.111877	1.30898	1.5708	0	0
20.12	2.81207	1.4219	-1.10434	0.63844	-0.239911	0.94751	-0.126004	0.00828163	-0.0377092	0.348816	-0.178105	0	0	-0.120688	-0.0876758	-0.0664326	0.371142	-0.130025	0	0	-0.242596	0.0537727	0.220699	0.272639	-0.5898	0.0251992	1.61952	1.5708	0	0	0.340788	-0.254132	0.106942	1.30896	1.5708	0	0
20.13	2.80876	1.42379	-1.10003	0.638617	-0.239911	0.947563	-0.12352	0.00844303	-0.0365416	0.349692	-0.177863	0	0	-0.118722	-0.0870498	-0.0629614	0.369765	-0.131212	0	0	-0.239997	0.0564399	0.221821	0.270825	-0.589334	0.023071	1.62107	1.5708	0	0	0.331512	-0.269894	0.101879	1.30761	1.5708	0	0
20.14	2.80272	1.4257	-1.09323	0.63888	-0.23988	0.947577	-0.12115	0.00913711	-0.0347211	0.349791	-0.177836	0	0	-0.116688	-0.0867999	-0.0591511	0.368433	-0.131932	0	0	-0.237121	0.059591	0.22321	0.268912	-0.588589	0.0208247	1.62282	1.5708	0	0	0.322873	-0.286014	0.0969517	1.30479	1.5708	0	0
20.15	2.79781	1.42791	-1.08712	0.639044	-0.239851	0.947575	-0.118805	0.00931849	-0.033959	0.349475	-0.178057	0	0	-0.114241	-0.0862998	-0.055741	0.367404	-0.132664	0	0	-0.233949	0.0627592	0.224031	0.266919	-0.587733	0.0185495	1.62471	1.5708	0	0	0.314892	-0.302207	0.0920216	1.30039	1.5708	0	0
20.16	2.79255	1.43024	-1.08063	0.639161	-0.239809	0.947582	-0.116489	0.00934635	-0.0336428	0.348934	-0.178726	0	0	-0.111628	-0.0858905	-0.0531372	0.366531	-0.133568	0	0	-0.230554	0.0661896	0.224703	0.26498	-0.586969	0.0165999	1.62652	1.5708	0	0	0.307456	-0.318528	0.0873472	1.29451	1.5708	0	0
